<?xml version="1.0"?>
<!--Icons from directory ""-->
<svg xmlns="http://www.w3.org/2000/svg" width="36" height="1632" viewBox="0 0 36 1632"><svg height="24" width="24" viewBox="0 0 24 24" fill="#FFFFFF" id="ic_access_time_white_24px" y="0"><path d="m11.99 2c-5.52 0-9.99 4.48-9.99 10s4.47 10 9.99 10c5.53 0 10.01-4.48 10.01-10s-4.48-10-10.01-10zm0.01 18c-4.42 0-8-3.58-8-8s3.58-8 8-8 8 3.58 8 8-3.58 8-8 8z"/><path d="m0 0h24v24h-24z" fill="none"/><path d="m12.5 7h-1.5v6l5.25 3.15 0.75-1.23-4.5-2.67z"/></svg><svg height="24" width="24" viewBox="0 0 24 24" fill="#FFFFFF" id="ic_add_circle_outline_white_24px" y="24"><path d="m0 0h24v24h-24z" fill="none"/><path d="m13 7h-2v4h-4v2h4v4h2v-4h4v-2h-4v-4zm-1-5c-5.52 0-10 4.48-10 10s4.48 10 10 10 10-4.48 10-10-4.48-10-10-10zm0 18c-4.41 0-8-3.59-8-8s3.59-8 8-8 8 3.59 8 8-3.59 8-8 8z"/></svg><svg height="24" width="24" viewBox="0 0 24 24" fill="#FFFFFF" id="ic_add_circle_white_24px" y="48"><path d="m0 0h24v24h-24z" fill="none"/><path d="m12 2c-5.52 0-10 4.48-10 10s4.48 10 10 10 10-4.48 10-10-4.48-10-10-10zm5 11h-4v4h-2v-4h-4v-2h4v-4h2v4h4v2z"/></svg><svg height="24" width="24" viewBox="0 0 24 24" fill="#FFFFFF" id="ic_apps_white_24px" y="72"><path d="m4 8h4v-4h-4v4zm6 12h4v-4h-4v4zm-6 0h4v-4h-4v4zm0-6h4v-4h-4v4zm6 0h4v-4h-4v4zm6-10v4h4v-4h-4zm-6 4h4v-4h-4v4zm6 6h4v-4h-4v4zm0 6h4v-4h-4v4z"/><path d="m0 0h24v24h-24z" fill="none"/></svg><svg height="24" width="24" viewBox="0 0 24 24" fill="#FFFFFF" id="ic_arrow_drop_down_white_24px" y="96"><path d="m7 10l5 5 5-5z"/><path d="m0 0h24v24h-24z" fill="none"/></svg><svg height="24" width="24" viewBox="0 0 24 24" fill="#FFFFFF" id="ic_arrow_drop_up_white_24px" y="120"><path d="m7 14l5-5 5 5z"/><path d="m0 0h24v24h-24z" fill="none"/></svg><svg height="24" width="24" viewBox="0 0 24 24" fill="#000000" id="ic_close_black_24px" y="144"><path d="m19 6.41l-1.41-1.41-5.59 5.59-5.59-5.59-1.41 1.41 5.59 5.59-5.59 5.59 1.41 1.41 5.59-5.59 5.59 5.59 1.41-1.41-5.59-5.59z"/><path d="m0 0h24v24h-24z" fill="none"/></svg><svg height="24" width="24" viewBox="0 0 24 24" fill="#FFFFFF" id="ic_close_white_24px" y="168"><path d="m19 6.41l-1.41-1.41-5.59 5.59-5.59-5.59-1.41 1.41 5.59 5.59-5.59 5.59 1.41 1.41 5.59-5.59 5.59 5.59 1.41-1.41-5.59-5.59z"/><path d="m0 0h24v24h-24z" fill="none"/></svg><svg height="24" width="24" viewBox="0 0 24 24" fill="#FFFFFF" id="ic_event_white_24px" y="192"><path d="m17 12h-5v5h5v-5zm-1-11v2h-8v-2h-2v2h-1c-1.11 0-1.99 0.9-1.99 2l-0.01 14c0 1.1 0.89 2 2 2h14c1.1 0 2-0.9 2-2v-14c0-1.1-0.9-2-2-2h-1v-2h-2zm3 18h-14v-11h14v11z"/><path d="m0 0h24v24h-24z" fill="none"/></svg><svg height="24" width="24" viewBox="0 0 24 24" fill="#FFFFFF" id="ic_favorite_border_white_24px" y="216"><path d="m0 0h24v24h-24z" fill="none"/><path d="m16.5 3c-1.74 0-3.41 0.81-4.5 2.09-1.09-1.28-2.76-2.09-4.5-2.09-3.08 0-5.5 2.42-5.5 5.5 0 3.78 3.4 6.86 8.55 11.54l1.45 1.31 1.45-1.32c5.15-4.67 8.55-7.75 8.55-11.53 0-3.08-2.42-5.5-5.5-5.5zm-4.4 15.55l-0.1 0.1-0.1-0.1c-4.76-4.31-7.9-7.16-7.9-10.05 0-2 1.5-3.5 3.5-3.5 1.54 0 3.04 0.99 3.57 2.36h1.87c0.52-1.37 2.02-2.36 3.56-2.36 2 0 3.5 1.5 3.5 3.5 0 2.89-3.14 5.74-7.9 10.05z"/></svg><svg height="24" width="24" viewBox="0 0 24 24" fill="#FFFFFF" id="ic_favorite_white_24px" y="240"><path d="m0 0h24v24h-24z" fill="none"/><path d="m12 21.35l-1.45-1.32c-5.15-4.67-8.55-7.75-8.55-11.53 0-3.08 2.42-5.5 5.5-5.5 1.74 0 3.41 0.81 4.5 2.09 1.09-1.28 2.76-2.09 4.5-2.09 3.08 0 5.5 2.42 5.5 5.5 0 3.78-3.4 6.86-8.55 11.54l-1.45 1.31z"/></svg><svg height="24" width="24" viewBox="0 0 24 24" fill="#FFFFFF" id="ic_first_page_white_24px" y="264"><path d="m18.41 16.59l-4.59-4.59 4.59-4.59-1.41-1.41-6 6 6 6zm-12.41-10.59h2v12h-2z"/><path d="m24 24h-24v-24h24v24z" fill="none"/></svg><svg height="24" width="24" viewBox="0 0 24 24" fill="#FFFFFF" id="ic_fullscreen_exit_white_24px" y="288"><path d="m0 0h24v24h-24z" fill="none"/><path d="m5 16h3v3h2v-5h-5v2zm3-8h-3v2h5v-5h-2v3zm6 11h2v-3h3v-2h-5v5zm2-11v-3h-2v5h5v-2h-3z"/></svg><svg height="24" width="24" viewBox="0 0 24 24" fill="#FFFFFF" id="ic_fullscreen_white_24px" y="312"><path d="m0 0h24v24h-24z" fill="none"/><path d="m7 14h-2v5h5v-2h-3v-3zm-2-4h2v-3h3v-2h-5v5zm12 7h-3v2h5v-5h-2v3zm-3-12v2h3v3h2v-5h-5z"/></svg><svg height="24" width="24" viewBox="0 0 24 24" fill="#000000" id="ic_home_black_24px" y="336"><path d="m10 20v-6h4v6h5v-8h3l-10-9-10 9h3v8z"/><path d="m0 0h24v24h-24z" fill="none"/></svg><svg height="24" width="24" viewBox="0 0 24 24" fill="#FFFFFF" id="ic_home_white_24px" y="360"><path d="m10 20v-6h4v6h5v-8h3l-10-9-10 9h3v8z"/><path d="m0 0h24v24h-24z" fill="none"/></svg><svg height="24" width="24" viewBox="0 0 24 24" fill="#000000" id="ic_info_black_24px" y="384"><path d="m0 0h24v24h-24z" fill="none"/><path d="m12 2c-5.52 0-10 4.48-10 10s4.48 10 10 10 10-4.48 10-10-4.48-10-10-10zm1 15h-2v-6h2v6zm0-8h-2v-2h2v2z"/></svg><svg height="24" width="24" viewBox="0 0 24 24" fill="#000000" id="ic_info_outline_black_24px" y="408"><path d="m0 0h24v24h-24z" fill="none"/><path d="m11 17h2v-6h-2v6zm1-15c-5.52 0-10 4.48-10 10s4.48 10 10 10 10-4.48 10-10-4.48-10-10-10zm0 18c-4.41 0-8-3.59-8-8s3.59-8 8-8 8 3.59 8 8-3.59 8-8 8zm-1-11h2v-2h-2v2z"/></svg><svg height="24" width="24" viewBox="0 0 24 24" fill="#FFFFFF" id="ic_info_outline_white_24px" y="432"><path d="m0 0h24v24h-24z" fill="none"/><path d="m11 17h2v-6h-2v6zm1-15c-5.52 0-10 4.48-10 10s4.48 10 10 10 10-4.48 10-10-4.48-10-10-10zm0 18c-4.41 0-8-3.59-8-8s3.59-8 8-8 8 3.59 8 8-3.59 8-8 8zm-1-11h2v-2h-2v2z"/></svg><svg height="24" width="24" viewBox="0 0 24 24" fill="#FFFFFF" id="ic_info_white_24px" y="456"><path d="m0 0h24v24h-24z" fill="none"/><path d="m12 2c-5.52 0-10 4.48-10 10s4.48 10 10 10 10-4.48 10-10-4.48-10-10-10zm1 15h-2v-6h2v6zm0-8h-2v-2h2v2z"/></svg><svg height="24" width="24" viewBox="0 0 24 24" fill="#FFFFFF" id="ic_keyboard_arrow_down_white_24px" y="480"><path d="m7.41 7.84l4.59 4.58 4.59-4.58 1.41 1.41-6 6-6-6z"/><path d="m0-0.75h24v24h-24z" fill="none"/></svg><svg height="24" width="24" viewBox="0 0 24 24" fill="#FFFFFF" id="ic_keyboard_arrow_left_white_24px" y="504"><path d="m15.41 16.09l-4.58-4.59 4.58-4.59-1.41-1.41-6 6 6 6z"/><path d="m0-0.5h24v24h-24z" fill="none"/></svg><svg height="24" width="24" viewBox="0 0 24 24" fill="#000000" id="ic_keyboard_arrow_right_black_24px" y="528"><path d="m8.59 16.34l4.58-4.59-4.58-4.59 1.41-1.41 6 6-6 6z"/><path d="m0-0.25h24v24h-24z" fill="none"/></svg><svg height="24" width="24" viewBox="0 0 24 24" fill="#FFFFFF" id="ic_keyboard_arrow_right_white_24px" y="552"><path d="m8.59 16.34l4.58-4.59-4.58-4.59 1.41-1.41 6 6-6 6z"/><path d="m0-0.25h24v24h-24z" fill="none"/></svg><svg height="24" width="24" viewBox="0 0 24 24" fill="#FFFFFF" id="ic_keyboard_arrow_up_white_24px" y="576"><path d="m7.41 15.41l4.59-4.58 4.59 4.58 1.41-1.41-6-6-6 6z"/><path d="m0 0h24v24h-24z" fill="none"/></svg><svg xmlns:xlink="http://www.w3.org/1999/xlink" height="24" width="24" viewBox="0 0 24 24" fill="#FFFFFF" id="ic_laptop_white_24px" y="600"><defs><path id="ic_laptop_white_24px-a" d="m0 0h24v24h-24v-24z"/></defs><clipPath id="ic_laptop_white_24px-b"><use overflow="visible" xlink:href="#ic_laptop_white_24px-a"/></clipPath><path d="m20 18c1.1 0 2-0.9 2-2v-10c0-1.1-0.9-2-2-2h-16c-1.1 0-2 0.9-2 2v10c0 1.1 0.9 2 2 2h-4v2h24v-2h-4zm-16-12h16v10h-16v-10z" clip-path="url(#ic_laptop_white_24px-b)"/></svg><svg height="24" width="24" viewBox="0 0 24 24" fill="#FFFFFF" id="ic_last_page_white_24px" y="624"><path d="m5.59 7.41l4.59 4.59-4.59 4.59 1.41 1.41 6-6-6-6zm10.41-1.41h2v12h-2z"/><path d="m0 0h24v24h-24v-24z" fill="none"/></svg><svg height="24" width="24" viewBox="0 0 24 24" fill="#FFFFFF" id="ic_library_add_white_24px" y="648"><path d="m0 0h24v24h-24z" fill="none"/><path d="m4 6h-2v14c0 1.1 0.9 2 2 2h14v-2h-14v-14zm16-4h-12c-1.1 0-2 0.9-2 2v12c0 1.1 0.9 2 2 2h12c1.1 0 2-0.9 2-2v-12c0-1.1-0.9-2-2-2zm-1 9h-4v4h-2v-4h-4v-2h4v-4h2v4h4v2z"/></svg><svg height="24" width="24" viewBox="0 0 24 24" fill="#000000" id="ic_menu_black_24px" y="672"><path d="m0 0h24v24h-24z" fill="none"/><path d="m3 18h18v-2h-18v2zm0-5h18v-2h-18v2zm0-7v2h18v-2h-18z"/></svg><svg height="36" width="36" viewBox="0 0 24 24" fill="#000000" id="ic_menu_black_36px" y="696"><path d="m0 0h24v24h-24z" fill="none"/><path d="m3 18h18v-2h-18v2zm0-5h18v-2h-18v2zm0-7v2h18v-2h-18z"/></svg><svg height="24" width="24" viewBox="0 0 24 24" fill="#FFFFFF" id="ic_menu_white_24px" y="732"><path d="m0 0h24v24h-24z" fill="none"/><path d="m3 18h18v-2h-18v2zm0-5h18v-2h-18v2zm0-7v2h18v-2h-18z"/></svg><svg height="36" width="36" viewBox="0 0 24 24" fill="#FFFFFF" id="ic_menu_white_36px" y="756"><path d="m0 0h24v24h-24z" fill="none"/><path d="m3 18h18v-2h-18v2zm0-5h18v-2h-18v2zm0-7v2h18v-2h-18z"/></svg><svg height="24" width="24" viewBox="0 0 24 24" fill="#FFFFFF" id="ic_movie_white_24px" y="792"><path d="m18 4l2 4h-3l-2-4h-2l2 4h-3l-2-4h-2l2 4h-3l-2-4h-1c-1.1 0-1.99 0.9-1.99 2l-0.01 12c0 1.1 0.9 2 2 2h16c1.1 0 2-0.9 2-2v-14h-4z"/><path d="m0 0h24v24h-24z" fill="none"/></svg><svg height="24" width="24" viewBox="0 0 24 24" fill="#000000" id="ic_person_black_24px" y="816"><path d="m12 12c2.21 0 4-1.79 4-4s-1.79-4-4-4-4 1.79-4 4 1.79 4 4 4zm0 2c-2.67 0-8 1.34-8 4v2h16v-2c0-2.66-5.33-4-8-4z"/><path d="m0 0h24v24h-24z" fill="none"/></svg><svg height="24" width="24" viewBox="0 0 24 24" fill="#FFFFFF" id="ic_person_white_24px" y="840"><path d="m12 12c2.21 0 4-1.79 4-4s-1.79-4-4-4-4 1.79-4 4 1.79 4 4 4zm0 2c-2.67 0-8 1.34-8 4v2h16v-2c0-2.66-5.33-4-8-4z"/><path d="m0 0h24v24h-24z" fill="none"/></svg><svg height="24" width="24" viewBox="0 0 24 24" fill="#FFFFFF" id="ic_phone_iphone_white_24px" y="864"><path d="m15.5 1h-8c-1.38 0-2.5 1.12-2.5 2.5v17c0 1.38 1.12 2.5 2.5 2.5h8c1.38 0 2.5-1.12 2.5-2.5v-17c0-1.38-1.12-2.5-2.5-2.5zm-4 21c-0.83 0-1.5-0.67-1.5-1.5s0.67-1.5 1.5-1.5 1.5 0.67 1.5 1.5-0.67 1.5-1.5 1.5zm4.5-4h-9v-14h9v14z"/><path d="m0 0h24v24h-24z" fill="none"/></svg><svg xmlns:xlink="http://www.w3.org/1999/xlink" height="24" width="24" viewBox="0 0 24 24" fill="#FFFFFF" id="ic_playlist_add_check_white_24px" y="888"><defs><path id="ic_playlist_add_check_white_24px-a" d="m0 0h24v24h-24v-24z"/></defs><clipPath id="ic_playlist_add_check_white_24px-b"><use overflow="visible" xlink:href="#ic_playlist_add_check_white_24px-a"/></clipPath><path d="m14 10h-12v2h12v-2zm0-4h-12v2h12v-2zm-12 10h8v-2h-8v2zm19.5-4.5l1.5 1.5-6.99 7-4.51-4.5 1.5-1.5 3.01 3 5.49-5.5z" clip-path="url(#ic_playlist_add_check_white_24px-b)"/></svg><svg height="24" width="24" viewBox="0 0 24 24" fill="#FFFFFF" id="ic_playlist_add_white_24px" y="912"><path d="m0 0h24v24h-24z" fill="none"/><path d="m14 10h-12v2h12v-2zm0-4h-12v2h12v-2zm4 8v-4h-2v4h-4v2h4v4h2v-4h4v-2h-4zm-16 2h8v-2h-8v2z"/></svg><svg xmlns:xlink="http://www.w3.org/1999/xlink" id="ic_playlist_play_white_24px" version="1.1" xml:space="preserve" height="24" viewBox="0 0 24 24" width="24" enable-background="new 0 0 24 24" y="936" x="0px" fill="#FFFFFF"><g id="ic_playlist_play_white_24px-XMLID_1_">	<path d="m0 0h24v24h-24v-24z" fill="none"/>	<g id="ic_playlist_play_white_24px-XMLID_2_">		<rect id="ic_playlist_play_white_24px-XMLID_3_" y="10" width="12" x="4" height="2"/>		<rect id="ic_playlist_play_white_24px-XMLID_4_" y="6" width="12" x="4" height="2"/>		<rect id="ic_playlist_play_white_24px-XMLID_5_" y="14" width="8" x="4" height="2"/>		<polygon id="ic_playlist_play_white_24px-XMLID_6_" points="14 14 14 20 19 17"/>	</g></g></svg><svg height="24" width="24" viewBox="0 0 24 24" fill="#FFFFFF" id="ic_remove_circle_outline_white_24px" y="960"><path d="m0 0h24v24h-24z" fill="none"/><path d="m7 11v2h10v-2h-10zm5-9c-5.52 0-10 4.48-10 10s4.48 10 10 10 10-4.48 10-10-4.48-10-10-10zm0 18c-4.41 0-8-3.59-8-8s3.59-8 8-8 8 3.59 8 8-3.59 8-8 8z"/></svg><svg height="24" width="24" viewBox="0 0 24 24" fill="#FFFFFF" id="ic_remove_circle_white_24px" y="984"><path d="m0 0h24v24h-24z" fill="none"/><path d="m12 2c-5.52 0-10 4.48-10 10s4.48 10 10 10 10-4.48 10-10-4.48-10-10-10zm5 11h-10v-2h10v2z"/></svg><svg height="24" width="24" viewBox="0 0 24 24" fill="#000000" id="ic_search_black_24px" y="1008"><path d="m15.5 14h-0.79l-0.28-0.27c0.98-1.14 1.57-2.62 1.57-4.23 0-3.59-2.91-6.5-6.5-6.5s-6.5 2.91-6.5 6.5 2.91 6.5 6.5 6.5c1.61 0 3.09-0.59 4.23-1.57l0.27 0.28v0.79l5 4.99 1.49-1.49-4.99-5zm-6 0c-2.49 0-4.5-2.01-4.5-4.5s2.01-4.5 4.5-4.5 4.5 2.01 4.5 4.5-2.01 4.5-4.5 4.5z"/><path d="m0 0h24v24h-24z" fill="none"/></svg><svg height="24" width="24" viewBox="0 0 24 24" fill="#ADADAD" id="ic_search_lightgray_24px" y="1032"><path d="m15.5 14h-0.79l-0.28-0.27c0.98-1.14 1.57-2.62 1.57-4.23 0-3.59-2.91-6.5-6.5-6.5s-6.5 2.91-6.5 6.5 2.91 6.5 6.5 6.5c1.61 0 3.09-0.59 4.23-1.57l0.27 0.28v0.79l5 4.99 1.49-1.49-4.99-5zm-6 0c-2.49 0-4.5-2.01-4.5-4.5s2.01-4.5 4.5-4.5 4.5 2.01 4.5 4.5-2.01 4.5-4.5 4.5z"/><path d="m0 0h24v24h-24z" fill="none"/></svg><svg height="24" width="24" viewBox="0 0 24 24" fill="#FFFFFF" id="ic_search_white_24px" y="1056"><path d="m15.5 14h-0.79l-0.28-0.27c0.98-1.14 1.57-2.62 1.57-4.23 0-3.59-2.91-6.5-6.5-6.5s-6.5 2.91-6.5 6.5 2.91 6.5 6.5 6.5c1.61 0 3.09-0.59 4.23-1.57l0.27 0.28v0.79l5 4.99 1.49-1.49-4.99-5zm-6 0c-2.49 0-4.5-2.01-4.5-4.5s2.01-4.5 4.5-4.5 4.5 2.01 4.5 4.5-2.01 4.5-4.5 4.5z"/><path d="m0 0h24v24h-24z" fill="none"/></svg><svg height="36" width="36" viewBox="0 0 24 24" fill="#FFFFFF" id="ic_search_white_36px" y="1080"><path d="m15.5 14h-0.79l-0.28-0.27c0.98-1.14 1.57-2.62 1.57-4.23 0-3.59-2.91-6.5-6.5-6.5s-6.5 2.91-6.5 6.5 2.91 6.5 6.5 6.5c1.61 0 3.09-0.59 4.23-1.57l0.27 0.28v0.79l5 4.99 1.49-1.49-4.99-5zm-6 0c-2.49 0-4.5-2.01-4.5-4.5s2.01-4.5 4.5-4.5 4.5 2.01 4.5 4.5-2.01 4.5-4.5 4.5z"/><path d="m0 0h24v24h-24z" fill="none"/></svg><svg height="24" width="24" viewBox="0 0 24 24" fill="#FFFFFF" id="ic_sentiment_dissatisfied_white_24px" y="1116"><path d="m0 0h24v24h-24z" fill="none"/><circle cy="9.5" cx="15.5" r="1.5"/><circle cy="9.5" cx="8.5" r="1.5"/><path d="m11.99 2c-5.52 0-9.99 4.48-9.99 10s4.47 10 9.99 10c5.53 0 10.01-4.48 10.01-10s-4.48-10-10.01-10zm0.01 18c-4.42 0-8-3.58-8-8s3.58-8 8-8 8 3.58 8 8-3.58 8-8 8zm0-6c-2.33 0-4.32 1.45-5.12 3.5h1.67c0.69-1.19 1.97-2 3.45-2s2.75 0.81 3.45 2h1.67c-0.8-2.05-2.79-3.5-5.12-3.5z"/></svg><svg height="24" width="24" viewBox="0 0 24 24" fill="#FFFFFF" id="ic_sentiment_neutral_white_24px" y="1140"><path d="m9 14h6v1.5h-6z"/><circle cy="9.5" cx="15.5" r="1.5"/><circle cy="9.5" cx="8.5" r="1.5"/><path d="m11.99 2c-5.52 0-9.99 4.48-9.99 10s4.47 10 9.99 10c5.53 0 10.01-4.48 10.01-10s-4.48-10-10.01-10zm0.01 18c-4.42 0-8-3.58-8-8s3.58-8 8-8 8 3.58 8 8-3.58 8-8 8z"/><path d="m0 0h24v24h-24z" fill="none"/></svg><svg height="24" width="24" viewBox="0 0 24 24" fill="#FFFFFF" id="ic_sentiment_satisfied_white_24px" y="1164"><path d="m0 0h24v24h-24z" fill="none"/><circle cy="9.5" cx="15.5" r="1.5"/><circle cy="9.5" cx="8.5" r="1.5"/><path d="m11.99 2c-5.52 0-9.99 4.48-9.99 10s4.47 10 9.99 10c5.53 0 10.01-4.48 10.01-10s-4.48-10-10.01-10zm0.01 18c-4.42 0-8-3.58-8-8s3.58-8 8-8 8 3.58 8 8-3.58 8-8 8zm0-4c-1.48 0-2.75-0.81-3.45-2h-1.67c0.8 2.05 2.79 3.5 5.12 3.5s4.32-1.45 5.12-3.5h-1.67c-0.7 1.19-1.97 2-3.45 2z"/></svg><svg height="24" width="24" viewBox="0 0 24 24" fill="#FFFFFF" id="ic_settings_white_24px" y="1188"><path d="m0 0h24v24h-24z" fill="none"/><path d="m19.43 12.98c0.04-0.32 0.07-0.64 0.07-0.98s-0.03-0.66-0.07-0.98l2.11-1.65c0.19-0.15 0.24-0.42 0.12-0.64l-2-3.46c-0.12-0.22-0.39-0.3-0.61-0.22l-2.49 1c-0.52-0.4-1.08-0.73-1.69-0.98l-0.38-2.65c-0.03-0.24-0.24-0.42-0.49-0.42h-4c-0.25 0-0.46 0.18-0.49 0.42l-0.38 2.65c-0.61 0.25-1.17 0.59-1.69 0.98l-2.49-1c-0.23-0.09-0.49 0-0.61 0.22l-2 3.46c-0.13 0.22-0.07 0.49 0.12 0.64l2.11 1.65c-0.04 0.32-0.07 0.65-0.07 0.98s0.03 0.66 0.07 0.98l-2.11 1.65c-0.19 0.15-0.24 0.42-0.12 0.64l2 3.46c0.12 0.22 0.39 0.3 0.61 0.22l2.49-1c0.52 0.4 1.08 0.73 1.69 0.98l0.38 2.65c0.03 0.24 0.24 0.42 0.49 0.42h4c0.25 0 0.46-0.18 0.49-0.42l0.38-2.65c0.61-0.25 1.17-0.59 1.69-0.98l2.49 1c0.23 0.09 0.49 0 0.61-0.22l2-3.46c0.12-0.22 0.07-0.49-0.12-0.64l-2.11-1.65zm-7.43 2.52c-1.93 0-3.5-1.57-3.5-3.5s1.57-3.5 3.5-3.5 3.5 1.57 3.5 3.5-1.57 3.5-3.5 3.5z"/></svg><svg height="18" width="18" viewBox="0 0 24 24" fill="#000000" id="ic_star_black_18px" y="1212"><path d="m0 0h24v24h-24z" fill="none"/><path d="m12 17.27l6.18 3.73-1.64-7.03 5.46-4.73-7.19-0.61-2.81-6.63-2.81 6.63-7.19 0.61 5.46 4.73-1.64 7.03z"/><path d="m0 0h24v24h-24z" fill="none"/></svg><svg height="18" width="18" viewBox="0 0 24 24" fill="#000000" id="ic_star_border_black_18px" y="1230"><path d="m22 9.24l-7.19-0.62-2.81-6.62-2.81 6.63-7.19 0.61 5.46 4.73-1.64 7.03 6.18-3.73 6.18 3.73-1.63-7.03 5.45-4.73zm-10 6.16l-3.76 2.27 1-4.28-3.32-2.88 4.38-0.38 1.7-4.03 1.71 4.04 4.38 0.38-3.32 2.88 1 4.28-3.77-2.28z"/><path d="m0 0h24v24h-24z" fill="none"/></svg><svg height="24" width="24" viewBox="0 0 24 24" fill="#FFFFFF" id="ic_star_border_white_24px" y="1248"><path d="m22 9.24l-7.19-0.62-2.81-6.62-2.81 6.63-7.19 0.61 5.46 4.73-1.64 7.03 6.18-3.73 6.18 3.73-1.63-7.03 5.45-4.73zm-10 6.16l-3.76 2.27 1-4.28-3.32-2.88 4.38-0.38 1.7-4.03 1.71 4.04 4.38 0.38-3.32 2.88 1 4.28-3.77-2.28z"/><path d="m0 0h24v24h-24z" fill="none"/></svg><svg xmlns:xlink="http://www.w3.org/1999/xlink" height="24" width="24" viewBox="0 0 24 24" fill="#FFFFFF" id="ic_star_half_white_24px" y="1272"><defs><path id="ic_star_half_white_24px-a" d="m0 0h24v24h-24v-24z"/></defs><clipPath id="ic_star_half_white_24px-b"><use overflow="visible" xlink:href="#ic_star_half_white_24px-a"/></clipPath><path d="m22 9.24l-7.19-0.62-2.81-6.62-2.81 6.63-7.19 0.61 5.46 4.73-1.64 7.03 6.18-3.73 6.18 3.73-1.63-7.03 5.45-4.73zm-10 6.16v-9.3l1.71 4.04 4.38 0.38-3.32 2.88 1 4.28-3.77-2.28z" clip-path="url(#ic_star_half_white_24px-b)"/></svg><svg height="24" width="24" viewBox="0 0 24 24" fill="#FFFFFF" id="ic_star_white_24px" y="1296"><path d="m0 0h24v24h-24z" fill="none"/><path d="m12 17.27l6.18 3.73-1.64-7.03 5.46-4.73-7.19-0.61-2.81-6.63-2.81 6.63-7.19 0.61 5.46 4.73-1.64 7.03z"/><path d="m0 0h24v24h-24z" fill="none"/></svg><svg height="24" width="24" viewBox="0 0 24 24" fill="#FFFFFF" id="ic_tablet_mac_white_24px" y="1320"><path d="m18.5 0h-14c-1.38 0-2.5 1.12-2.5 2.5v19c0 1.38 1.12 2.5 2.5 2.5h14c1.38 0 2.5-1.12 2.5-2.5v-19c0-1.38-1.12-2.5-2.5-2.5zm-7 23c-0.83 0-1.5-0.67-1.5-1.5s0.67-1.5 1.5-1.5 1.5 0.67 1.5 1.5-0.67 1.5-1.5 1.5zm7.5-4h-15v-16h15v16z"/></svg><svg height="24" width="24" viewBox="0 0 24 24" fill="#000000" id="ic_theaters_black_24px" y="1344"><path d="m18 3v2h-2v-2h-8v2h-2v-2h-2v18h2v-2h2v2h8v-2h2v2h2v-18h-2zm-10 14h-2v-2h2v2zm0-4h-2v-2h2v2zm0-4h-2v-2h2v2zm10 8h-2v-2h2v2zm0-4h-2v-2h2v2zm0-4h-2v-2h2v2z"/><path d="m0 0h24v24h-24z" fill="none"/></svg><svg height="24" width="24" viewBox="0 0 24 24" fill="#FFFFFF" id="ic_theaters_white_24px" y="1368"><path d="m18 3v2h-2v-2h-8v2h-2v-2h-2v18h2v-2h2v2h8v-2h2v2h2v-18h-2zm-10 14h-2v-2h2v2zm0-4h-2v-2h2v2zm0-4h-2v-2h2v2zm10 8h-2v-2h2v2zm0-4h-2v-2h2v2zm0-4h-2v-2h2v2z"/><path d="m0 0h24v24h-24z" fill="none"/></svg><svg height="24" width="24" viewBox="0 0 24 24" fill="#FFFFFF" id="ic_thumb_down_white_24px" y="1392"><path d="m0 0h24v24h-24z" fill="none"/><path d="m15 3h-9c-0.83 0-1.54 0.5-1.84 1.22l-3.02 7.05c-0.09 0.23-0.14 0.47-0.14 0.73v1.91l0.01 0.01-0.01 0.08c0 1.1 0.9 2 2 2h6.31l-0.95 4.57-0.03 0.32c0 0.41 0.17 0.79 0.44 1.06l1.06 1.05 6.59-6.59c0.36-0.36 0.58-0.86 0.58-1.41v-10c0-1.1-0.9-2-2-2zm4 0v12h4v-12h-4z"/></svg><svg height="24" width="24" viewBox="0 0 24 24" fill="#FFFFFF" id="ic_thumb_up_white_24px" y="1416"><path d="m0 0h24v24h-24z" fill="none"/><path d="m1 21h4v-12h-4v12zm22-11c0-1.1-0.9-2-2-2h-6.31l0.95-4.57 0.03-0.32c0-0.41-0.17-0.79-0.44-1.06l-1.06-1.05-6.58 6.59c-0.37 0.36-0.59 0.86-0.59 1.41v10c0 1.1 0.9 2 2 2h9c0.83 0 1.54-0.5 1.84-1.22l3.02-7.05c0.09-0.23 0.14-0.47 0.14-0.73v-1.91l-0.01-0.01 0.01-0.08z"/></svg><svg height="24" width="24" viewBox="0 0 24 24" fill="#FFFFFF" id="ic_translate_white_24px" y="1440"><path d="m0 0h24v24h-24z" fill="none"/><path d="m12.87 15.07l-2.54-2.51 0.03-0.03c1.74-1.94 2.98-4.17 3.71-6.53h2.93v-2h-7v-2h-2v2h-7v1.99h11.17c-0.67 1.93-1.73 3.76-3.17 5.36-0.93-1.03-1.7-2.16-2.31-3.35h-2c0.73 1.63 1.73 3.17 2.98 4.56l-5.09 5.02 1.42 1.42 5-5 3.11 3.11 0.76-2.04zm5.63-5.07h-2l-4.5 12h2l1.12-3h4.75l1.13 3h2l-4.5-12zm-2.62 7l1.62-4.33 1.62 4.33h-3.24z"/></svg><svg height="24" width="24" viewBox="0 0 24 24" fill="#FFFFFF" id="ic_tv_white_24px" y="1464"><path d="m0 0h24v24h-24z" fill="none"/><path d="m21 3h-18c-1.1 0-2 0.9-2 2v12c0 1.1 0.9 2 2 2h5v2h8v-2h5c1.1 0 1.99-0.9 1.99-2l0.01-12c0-1.1-0.9-2-2-2zm0 14h-18v-12h18v12z"/></svg><svg height="24" width="24" viewBox="0 0 24 24" fill="#FFFFFF" id="ic_view_list_white_24px" y="1488"><path d="m4 14h4v-4h-4v4zm0 5h4v-4h-4v4zm0-10h4v-4h-4v4zm5 5h12v-4h-12v4zm0 5h12v-4h-12v4zm0-14v4h12v-4h-12z"/><path d="m0 0h24v24h-24z" fill="none"/></svg><svg height="24" width="24" viewBox="0 0 24 24" fill="#000000" id="ic_view_module_black_24px" y="1512"><path d="m4 11h5v-6h-5v6zm0 7h5v-6h-5v6zm6 0h5v-6h-5v6zm6 0h5v-6h-5v6zm-6-7h5v-6h-5v6zm6-6v6h5v-6h-5z"/><path d="m0 0h24v24h-24z" fill="none"/></svg><svg height="24" width="24" viewBox="0 0 24 24" fill="#FFFFFF" id="ic_view_module_white_24px" y="1536"><path d="m4 11h5v-6h-5v6zm0 7h5v-6h-5v6zm6 0h5v-6h-5v6zm6 0h5v-6h-5v6zm-6-7h5v-6h-5v6zm6-6v6h5v-6h-5z"/><path d="m0 0h24v24h-24z" fill="none"/></svg><svg height="24" width="24" viewBox="0 0 24 24" fill="#FFFFFF" id="ic_visibility_off_white_24px" y="1560"><path d="m0 0h24v24h-24zh24v24h-24zh24v24h-24zh24v24h-24z" fill="none"/><path d="m12 7c2.76 0 5 2.24 5 5 0 0.65-0.13 1.26-0.36 1.83l2.92 2.92c1.51-1.26 2.7-2.89 3.43-4.75-1.73-4.39-6-7.5-11-7.5-1.4 0-2.74 0.25-3.98 0.7l2.16 2.16c0.57-0.23 1.18-0.36 1.83-0.36zm-10-2.73l2.28 2.28 0.46 0.46c-1.66 1.29-2.96 3.01-3.74 4.99 1.73 4.39 6 7.5 11 7.5 1.55 0 3.03-0.3 4.38-0.84l0.42 0.42 2.93 2.92 1.27-1.27-17.73-17.73-1.27 1.27zm5.53 5.53l1.55 1.55c-0.05 0.21-0.08 0.43-0.08 0.65 0 1.66 1.34 3 3 3 0.22 0 0.44-0.03 0.65-0.08l1.55 1.55c-0.67 0.33-1.41 0.53-2.2 0.53-2.76 0-5-2.24-5-5 0-0.79 0.2-1.53 0.53-2.2zm4.31-0.78l3.15 3.15 0.02-0.16c0-1.66-1.34-3-3-3l-0.17 0.01z"/></svg><svg height="24" width="24" viewBox="0 0 24 24" fill="#FFFFFF" id="ic_visibility_white_24px" y="1584"><path d="m0 0h24v24h-24z" fill="none"/><path d="m12 4.5c-5 0-9.27 3.11-11 7.5 1.73 4.39 6 7.5 11 7.5s9.27-3.11 11-7.5c-1.73-4.39-6-7.5-11-7.5zm0 12.5c-2.76 0-5-2.24-5-5s2.24-5 5-5 5 2.24 5 5-2.24 5-5 5zm0-8c-1.66 0-3 1.34-3 3s1.34 3 3 3 3-1.34 3-3-1.34-3-3-3z"/></svg><svg height="24" width="24" viewBox="0 0 24 24" fill="#FFFFFF" id="ic_volume_up_white_24px" y="1608"><path d="m3 9v6h4l5 5v-16l-5 5h-4zm13.5 3c0-1.77-1.02-3.29-2.5-4.03v8.05c1.48-0.73 2.5-2.25 2.5-4.02zm-2.5-8.77v2.06c2.89 0.86 5 3.54 5 6.71s-2.11 5.85-5 6.71v2.06c4.01-0.91 7-4.49 7-8.77s-2.99-7.86-7-8.77z"/><path d="m0 0h24v24h-24z" fill="none"/></svg></svg>
